<?xml version="1.0" encoding="UTF-8"?>
<svg id="Layer_2" data-name="Layer 2" xmlns="http://www.w3.org/2000/svg" viewBox="0 0 746.59 758.46">
  <defs>
    <style>
      .cls-1 {
        fill: #fff;
      }

      .cls-2 {
        fill: #0869d8;
      }
    </style>
  </defs>
  <g id="Isolation_Mode" data-name="Isolation Mode">
    <g>
      <rect class="cls-2" width="746.59" height="758.46" rx="86.31" ry="86.31"/>
      <path class="cls-1" d="M544.55,205.33c2.64,13.97,2.52,28.21,3.12,42.38,3.99,94.94,0,217.26-85.1,277.92-61.14,43.59-144.22,40.83-202.38-6.44-61.74-50.18-81.31-150.11-41.7-219.64,61.49-107.97,218.97-101.29,326.07-94.22ZM502.66,247.22c-11.5-.07-23.03.1-34.55.05-67.39-.3-152.24,2.52-199.43,58.49-31.6,37.48-32.25,94.81-11.74,137.69,1.47,3.08,10.6,20.41,13.2,19.79,10.37-19.59,21.15-38.49,35.12-55.9,17.34-21.62,38.1-40.13,60.08-56.92l41.31-26.18c-18.33,20.33-36.97,40.36-52.41,63.08-21.8,32.08-40.49,69.86-47.48,108.26,44.3,28.63,105.14,18.03,142.9-16.83,52.7-48.64,57.08-152.12,52.94-218.97-.26-4.14.27-8.4.05-12.55Z"/>
    </g>
  </g>
</svg>